<svg width="314" height="90" viewBox="0 0 314 90" fill="none" xmlns="http://www.w3.org/2000/svg">
<g id="Airplane">
<path id="Vector" d="M170.12 73.7192H167.414V81.0294H170.12V73.7192Z" stroke="black" stroke-width="0.5" stroke-miterlimit="10"/>
<path id="Vector_2" d="M19.3359 59.5979H72.2546H255.783C262.45 59.5979 269.123 60.3467 275.651 61.858C301.322 67.8027 314.084 73.2733 313.938 78.273C313.875 80.4013 311.477 82.4427 306.743 84.3971C303.172 85.872 299.374 86.5871 295.563 86.6376L75.0028 89.6828L19.3359 59.5979Z" fill="url(#paint0_linear_19_2610)"/>
<path id="Vector_3" d="M14.5684 10.7847L70.8889 59.5978H17.9728L1.79614 10.7847H14.5684Z" fill="url(#paint1_linear_19_2610)"/>
<path id="Vector_4" d="M79.5627 67.9289V84.3663C64.3021 87.0582 52.5343 84.8262 50.2983 78.4946C50.2125 78.2534 49.458 76.0187 50.2983 73.652C52.5368 67.354 64.2971 65.178 79.5627 67.9289Z" fill="#4B4B4D"/>
<path id="Vector_5" d="M79.6968 84.4559C80.5163 84.4559 81.1807 80.7562 81.1807 76.1923C81.1807 71.6285 80.5163 67.9287 79.6968 67.9287C78.8773 67.9287 78.2129 71.6285 78.2129 76.1923C78.2129 80.7562 78.8773 84.4559 79.6968 84.4559Z" fill="#CCCED0"/>
<path id="Vector_6" d="M186.432 75.466V82.8295C177.342 84.0351 170.332 83.0341 169.002 80.1992C168.951 80.0899 168.502 79.0888 169.002 78.0317C170.334 75.2108 177.337 74.235 186.432 75.466Z" fill="#4B4B4D"/>
<path id="Vector_7" d="M186.511 82.8687C186.999 82.8687 187.394 81.2115 187.394 79.1674C187.394 77.1232 186.999 75.4661 186.511 75.4661C186.023 75.4661 185.627 77.1232 185.627 79.1674C185.627 81.2115 186.023 82.8687 186.511 82.8687Z" fill="#CCCED0"/>
<path id="Vector_8" d="M146.684 65.9546H212.426L98.7501 83.3315H89.3848L146.684 65.9546Z" fill="#818385"/>
<path id="Vector_9" d="M201.494 76.3492C202.426 76.3492 203.182 75.2458 203.182 73.8845C203.182 72.5232 202.426 71.4197 201.494 71.4197C200.561 71.4197 199.805 72.5232 199.805 73.8845C199.805 75.2458 200.561 76.3492 201.494 76.3492Z" fill="#818385"/>
<path id="Vector_10" d="M206.851 76.3492C207.784 76.3492 208.54 75.2457 208.54 73.8845C208.54 72.5231 207.784 71.4197 206.851 71.4197C205.919 71.4197 205.163 72.5231 205.163 73.8845C205.163 75.2457 205.919 76.3492 206.851 76.3492Z" fill="#818385"/>
<path id="Vector_11" d="M212.209 76.3492C213.142 76.3492 213.897 75.2457 213.897 73.8845C213.897 72.5231 213.142 71.4197 212.209 71.4197C211.277 71.4197 210.521 72.5231 210.521 73.8845C210.521 75.2457 211.277 76.3492 212.209 76.3492Z" fill="#818385"/>
<path id="Vector_12" d="M217.567 76.3492C218.499 76.3492 219.255 75.2457 219.255 73.8845C219.255 72.5231 218.499 71.4197 217.567 71.4197C216.635 71.4197 215.879 72.5231 215.879 73.8845C215.879 75.2457 216.635 76.3492 217.567 76.3492Z" fill="#818385"/>
<path id="Vector_13" d="M222.924 76.3492C223.857 76.3492 224.612 75.2457 224.612 73.8845C224.612 72.5231 223.857 71.4197 222.924 71.4197C221.992 71.4197 221.236 72.5231 221.236 73.8845C221.236 75.2457 221.992 76.3492 222.924 76.3492Z" fill="#818385"/>
<path id="Vector_14" d="M228.285 76.3492C229.217 76.3492 229.973 75.2457 229.973 73.8845C229.973 72.5231 229.217 71.4197 228.285 71.4197C227.352 71.4197 226.596 72.5231 226.596 73.8845C226.596 75.2457 227.352 76.3492 228.285 76.3492Z" fill="#818385"/>
<path id="Vector_15" d="M233.643 76.3492C234.575 76.3492 235.331 75.2457 235.331 73.8845C235.331 72.5231 234.575 71.4197 233.643 71.4197C232.71 71.4197 231.954 72.5231 231.954 73.8845C231.954 75.2457 232.71 76.3492 233.643 76.3492Z" fill="#818385"/>
<path id="Vector_16" d="M239.001 76.3492C239.933 76.3492 240.689 75.2457 240.689 73.8845C240.689 72.5231 239.933 71.4197 239.001 71.4197C238.068 71.4197 237.312 72.5231 237.312 73.8845C237.312 75.2457 238.068 76.3492 239.001 76.3492Z" fill="#818385"/>
<path id="Vector_17" d="M244.358 76.3492C245.291 76.3492 246.047 75.2457 246.047 73.8845C246.047 72.5231 245.291 71.4197 244.358 71.4197C243.426 71.4197 242.67 72.5231 242.67 73.8845C242.67 75.2457 243.426 76.3492 244.358 76.3492Z" fill="#818385"/>
<path id="Vector_18" d="M249.715 76.3492C250.648 76.3492 251.404 75.2457 251.404 73.8845C251.404 72.5231 250.648 71.4197 249.715 71.4197C248.783 71.4197 248.027 72.5231 248.027 73.8845C248.027 75.2457 248.783 76.3492 249.715 76.3492Z" fill="#818385"/>
<path id="Vector_19" d="M295.737 67.5054H264.391V65.8425H290.289L295.737 67.5054Z" fill="#818385"/>
<path id="Vector_20" d="M0.390625 10.7847L17.4506 59.5979H27.5578L4.01207 10.7847H0.390625Z" fill="#4B4B4D"/>
<path id="Vector_21" d="M17.9729 59.5979L5.23096 71.0498H20.6455L85.5565 59.5979H17.9729Z" fill="#818385"/>
<g id="planelight" filter="url(#filter0_f_19_2610)">
<ellipse cx="13.5" cy="10.1111" rx="5.5" ry="6.11111" fill="#00FF38" fill-opacity="0.6"/>
</g>
</g>
<defs>
<filter id="filter0_f_19_2610" x="4" y="0" width="19" height="20.2222" filterUnits="userSpaceOnUse" color-interpolation-filters="sRGB">
<feFlood flood-opacity="0" result="BackgroundImageFix"/>
<feBlend mode="normal" in="SourceGraphic" in2="BackgroundImageFix" result="shape"/>
<feGaussianBlur stdDeviation="2" result="effect1_foregroundBlur_19_2610"/>
</filter>
<linearGradient id="paint0_linear_19_2610" x1="19.3367" y1="74.6429" x2="313.937" y2="74.6429" gradientUnits="userSpaceOnUse">
<stop stop-color="#DADBDC"/>
<stop offset="1" stop-color="white"/>
</linearGradient>
<linearGradient id="paint1_linear_19_2610" x1="1.79698" y1="35.1922" x2="70.89" y2="35.1922" gradientUnits="userSpaceOnUse">
<stop stop-color="#DADBDC"/>
<stop offset="1" stop-color="white"/>
</linearGradient>
</defs>
</svg>
