<svg width="583" height="1364" viewBox="0 0 583 1364" fill="none" xmlns="http://www.w3.org/2000/svg">
<g id="Rocket">
<g id="afterburn">
<g id="Layer_48">
<path id="Vector" opacity="0.8" d="M474.7 1000.4L560.8 1287.7" stroke="#98A1D1" stroke-width="4" stroke-miterlimit="10" stroke-linecap="round"/>
</g>
<g id="Layer_47">
<path id="Vector_2" opacity="0.8" d="M470.1 1047.1L503 1157.1" stroke="#FAB783" stroke-width="4" stroke-miterlimit="10" stroke-linecap="round"/>
</g>
<g id="Layer_43">
<path id="Vector_3" opacity="0.8" d="M438.1 1082.6L489.6 1254.2" stroke="#FAB783" stroke-width="4" stroke-miterlimit="10" stroke-linecap="round"/>
</g>
<g id="Layer_42">
<path id="Vector_4" opacity="0.8" d="M433.4 1129.3L466.4 1239.3" stroke="#98A1D1" stroke-width="4" stroke-miterlimit="10" stroke-linecap="round"/>
</g>
<g id="Layer_41">
<path id="Vector_5" opacity="0.8" d="M507.9 1176.1L540.9 1286.1" stroke="#98A1D1" stroke-width="4" stroke-miterlimit="10" stroke-linecap="round"/>
</g>
<g id="Layer_40">
<path id="Vector_6" opacity="0.8" d="M404.3 1070.8L442.5 1198.2L470.7 1292.1" stroke="#FAB783" stroke-width="4" stroke-miterlimit="10" stroke-linecap="round"/>
</g>
<g id="Layer_39">
<path id="Vector_7" opacity="0.8" d="M441.5 1027.2L479.7 1154.6L507.9 1248.5" stroke="#FAB783" stroke-width="4" stroke-miterlimit="10" stroke-linecap="round"/>
</g>
<g id="Layer_38">
<path id="Vector_8" opacity="0.8" d="M404.9 1109.3L464.3 1307.5" stroke="#98A1D1" stroke-width="4" stroke-miterlimit="10" stroke-linecap="round"/>
</g>
<g id="Layer_37">
<path id="Vector_9" opacity="0.8" d="M287.5 1055L373.6 1342.2" stroke="#FAB783" stroke-width="4" stroke-miterlimit="10" stroke-linecap="round"/>
</g>
<g id="Layer_36">
<path id="Vector_10" opacity="0.8" d="M282.9 1101.7L315.8 1211.7" stroke="#98A1D1" stroke-width="4" stroke-miterlimit="10" stroke-linecap="round"/>
</g>
<g id="Layer_34">
<path id="Vector_11" opacity="0.8" d="M214 1053.4L235.5 1125.2" stroke="#98A1D1" stroke-width="4" stroke-miterlimit="10" stroke-linecap="round"/>
</g>
<g id="Layer_33">
<path id="Vector_12" opacity="0.8" d="M254.4 1081.7L325 1317.5" stroke="#98A1D1" stroke-width="4" stroke-miterlimit="10" stroke-linecap="round"/>
</g>
<g id="Layer_32">
<path id="Vector_13" opacity="0.8" d="M246.9 1112.8L298.3 1284.4" stroke="#FAB783" stroke-width="4" stroke-miterlimit="10" stroke-linecap="round"/>
</g>
<g id="Layer_31">
<path id="Vector_14" opacity="0.8" d="M246.2 1183.8L279.2 1293.8" stroke="#98A1D1" stroke-width="4" stroke-miterlimit="10" stroke-linecap="round"/>
</g>
<g id="Layer_30">
<path id="Vector_15" opacity="0.8" d="M217.1 1125.3L250.3 1236L274.7 1317.5" stroke="#98A1D1" stroke-width="4" stroke-miterlimit="10" stroke-linecap="round"/>
</g>
<g id="Layer_29">
<path id="Vector_16" opacity="0.8" d="M217.7 1163.9L258.1 1298.4" stroke="#FAB783" stroke-width="4" stroke-miterlimit="10" stroke-linecap="round"/>
</g>
</g>
<g id="Layer_2">
<g id="Group">
<path id="Vector_17" d="M23.3 97.8L33.9 21.8C35.6 9.8 50.5 5.3 58.6 14.3L110 72.3C117.2 80.5 122.5 90.1 125.4 100.6L148 181.2C137.7 205.1 142.2 227.9 155.4 240.5C158.2 243.2 159.6 246.2 166.8 248.2C221.3 443.4 276.3 640 330.9 835.2L231.2 863.1C176.5 667.4 121.7 471.8 67 276.2C70.1 271.9 72.3 265.1 73.2 261.6C85.5 232.1 53.5 210.1 48.4 209.9C40.7 182.3 33 154.7 25.2 127.2C22.6 117.6 21.9 107.6 23.3 97.8Z" fill="url(#paint0_linear_2_374)"/>
<path id="Vector_18" d="M330.883 835.198L231.213 863.091L234.366 874.358L334.036 846.465L330.883 835.198Z" fill="#BD5323"/>
<path id="Vector_19" d="M260.1 887.3L322.5 869.8C323.1 869.6 323.7 869.2 323.9 868.6L331.7 850.8C332.4 849.1 330.9 847.3 329.1 847.8L239.3 872.9C237.4 873.4 237.1 876.1 238.9 877L258.5 887.2C259 887.4 259.6 887.5 260.1 887.3Z" fill="#454547"/>
<path id="Vector_20" d="M280.2 909.4L312.1 900.5L320.7 870.3L258.3 887.8L280.2 909.4Z" fill="#231F20"/>
<path id="Vector_21" d="M321.886 924.873L285.484 935.06L290.443 952.779L326.845 942.592L321.886 924.873Z" fill="#231F20"/>
<path id="Vector_22" d="M298.5 994.9L341.3 982.9C341 978.2 339.8 970.2 335.3 961.5C330.7 952.7 324.8 947.1 321.2 944.1C313.5 946.2 305.9 948.4 298.2 950.5C296.4 954.9 293.9 962.4 293.8 971.9C293.7 982.4 296.6 990.5 298.5 994.9Z" fill="#231F20"/>
<path id="Vector_23" d="M385 993L452.2 974.2C452.4 969.4 451.8 961.2 446.2 952.8C440.5 944.3 432.3 939.3 427.2 936.7C415.2 940.1 403.1 943.4 391.1 946.8C387.6 951.6 382.7 959.8 381.2 969.8C379.6 980.6 382.7 988.6 385 993Z" fill="#231F20"/>
<path id="Vector_24" d="M220.19 382.336L205.36 386.486L219.967 438.681L234.797 434.531L220.19 382.336Z" fill="#231F20" stroke="#231F20" stroke-width="4" stroke-miterlimit="10" stroke-linecap="round"/>
<path id="Vector_25" d="M427.4 903.7L370.6 919.6L213.3 357.7L270.1 341.8L427.4 903.7Z" fill="url(#paint1_linear_2_374)"/>
<path id="Vector_26" d="M427.319 903.727L370.502 919.627L374.005 932.146L430.822 916.246L427.319 903.727Z" fill="#BD5323"/>
<path id="Vector_27" d="M371.2 952.4L443.8 932L431.4 916.1L374.6 932L371.2 952.4Z" fill="#454547"/>
<path id="Vector_28" d="M321.775 897.777L271.507 911.845L278.541 936.979L328.809 922.911L321.775 897.777Z" fill="#BD5323"/>
<path id="Vector_29" d="M325.502 539.859L268.685 555.76L272.836 570.59L329.653 554.689L325.502 539.859Z" fill="#BD5323"/>
<path id="Vector_30" d="M332.296 564.156L275.479 580.057L276.638 584.197L333.455 568.297L332.296 564.156Z" fill="#231F20"/>
<path id="Vector_31" d="M276.43 364.657L219.613 380.557L220.772 384.698L277.589 368.798L276.43 364.657Z" fill="#BD5323"/>
<path id="Vector_32" d="M267 1026L199.8 1044.8C197.1 1040.8 193.4 1033.5 193.8 1023.4C194.2 1013.2 198.7 1004.7 201.7 999.8C213.7 996.4 225.8 993.1 237.8 989.7C243.3 992 251.7 996.5 258.2 1004.2C265.2 1012.6 266.7 1021.1 267 1026Z" fill="#231F20"/>
<path id="Vector_33" d="M105.474 470.796L120.305 466.646L105.698 414.451L90.8674 418.602L105.474 470.796Z" fill="#231F20" stroke="#231F20" stroke-width="4" stroke-miterlimit="10" stroke-linecap="round"/>
<path id="Vector_34" d="M184.4 971.7L241.2 955.8L84 393.9L27.2 409.8L184.4 971.7Z" fill="url(#paint2_linear_2_374)"/>
<path id="Vector_35" d="M187.95 984.218L244.767 968.317L241.263 955.798L184.446 971.699L187.95 984.218Z" fill="#BD5323"/>
<path id="Vector_36" d="M257.7 984.1L185.1 1004.5L187.4 984.4L244.2 968.5L257.7 984.1Z" fill="#454547"/>
<path id="Vector_37" d="M139.395 591.94L82.5784 607.84L86.7287 622.67L143.546 606.77L139.395 591.94Z" fill="#BD5323"/>
<path id="Vector_38" d="M146.189 616.236L89.3723 632.137L90.5311 636.278L147.348 620.377L146.189 616.236Z" fill="#231F20"/>
<path id="Vector_39" d="M90.1979 416.237L33.3809 432.137L34.5397 436.278L91.3567 420.378L90.1979 416.237Z" fill="#BD5323"/>
<path id="Vector_40" d="M67 276.2L166.7 248.3" stroke="url(#paint3_linear_2_374)" stroke-width="4" stroke-miterlimit="10" stroke-linecap="round"/>
<path id="Vector_41" d="M34.2 158.8L133.8 130.9" stroke="url(#paint4_linear_2_374)" stroke-width="4" stroke-miterlimit="10" stroke-linecap="round"/>
<path id="Vector_42" d="M30.2 144.9L129.9 117" stroke="url(#paint5_linear_2_374)" stroke-width="4" stroke-miterlimit="10" stroke-linecap="round"/>
<path id="Vector_43" d="M121.802 264.08L113.616 266.371L275.639 845.327L283.825 843.036L121.802 264.08Z" fill="#231F20" stroke="#231F20" stroke-width="4" stroke-miterlimit="10" stroke-linecap="round"/>
</g>
</g>
</g>
<defs>
<linearGradient id="paint0_linear_2_374" x1="176.772" y1="863.051" x2="176.772" y2="9.57988" gradientUnits="userSpaceOnUse">
<stop stop-color="#747578"/>
<stop offset="1" stop-color="#D3D4D6"/>
</linearGradient>
<linearGradient id="paint1_linear_2_374" x1="213.295" y1="630.709" x2="427.376" y2="630.709" gradientUnits="userSpaceOnUse">
<stop stop-color="#747578"/>
<stop offset="1" stop-color="#D3D4D6"/>
</linearGradient>
<linearGradient id="paint2_linear_2_374" x1="27.1512" y1="682.811" x2="241.232" y2="682.811" gradientUnits="userSpaceOnUse">
<stop stop-color="#747578"/>
<stop offset="1" stop-color="#D3D4D6"/>
</linearGradient>
<linearGradient id="paint3_linear_2_374" x1="65.0579" y1="276.701" x2="168.582" y2="247.73" gradientUnits="userSpaceOnUse">
<stop stop-color="#231F20"/>
<stop offset="0.1413" stop-color="#231F20"/>
<stop offset="1" stop-color="#231F20"/>
</linearGradient>
<linearGradient id="paint4_linear_2_374" x1="32.2254" y1="159.382" x2="135.749" y2="130.41" gradientUnits="userSpaceOnUse">
<stop stop-color="#231F20"/>
<stop offset="0.1413" stop-color="#231F20"/>
<stop offset="1" stop-color="#231F20"/>
</linearGradient>
<linearGradient id="paint5_linear_2_374" x1="28.3216" y1="145.432" x2="131.845" y2="116.461" gradientUnits="userSpaceOnUse">
<stop stop-color="#231F20"/>
<stop offset="0.1413" stop-color="#231F20"/>
<stop offset="1" stop-color="#231F20"/>
</linearGradient>
</defs>
</svg>
